<svg xmlns="http://www.w3.org/2000/svg" viewBox="0 0 96 96">
  <rect width="96" height="96" rx="22" fill="#0d0f14"/>
  <!-- bars -->
  <rect x="12" y="54" width="13" height="28" rx="5" fill="#37e6a4"/>
  <rect x="28" y="40" width="13" height="42" rx="5" fill="#5ef0bf"/>
  <rect x="44" y="24" width="13" height="58" rx="5" fill="#c6ff3d"/>
  <!-- rocket angled up-right -->
  <g transform="translate(58,20) rotate(28) translate(-14,-8)">
    <path d="M14 52 L8 52 L11 68 Z" fill="#ffae3d"/>
    <path d="M13 52 L9 52 L11 62 Z" fill="#ffd23f"/>
    <path d="M4 40 L-4 56 L10 48 Z" fill="#ff5a4d"/>
    <path d="M18 40 L26 56 L12 48 Z" fill="#ff5a4d"/>
    <rect x="5" y="14" width="12" height="38" rx="6" fill="#eef1f6"/>
    <path d="M11 2 C16 8 17 12 17 16 L5 16 C5 12 6 8 11 2 Z" fill="#ff5a4d"/>
    <circle cx="11" cy="28" r="4" fill="#3dd4ff"/>
  </g>
  <circle cx="52" cy="14" r="2" fill="#3dd4ff"/>
  <circle cx="58" cy="20" r="1.4" fill="#3dd4ff" opacity=".75"/>
</svg>