<svg xmlns="http://www.w3.org/2000/svg" viewBox="0 0 512 512" role="img" aria-label="Money Move$">
  <rect width="512" height="512" rx="112" fill="#0d0f14"/>
  <circle cx="380" cy="120" r="180" fill="#c6ff3d" opacity="0.07"/>
  <rect x="64" y="288" width="72" height="152" rx="28" fill="#37e6a4"/>
  <rect x="152" y="220" width="72" height="220" rx="28" fill="#5ef0bf"/>
  <rect x="240" y="140" width="72" height="300" rx="28" fill="#c6ff3d"/>
  <g transform="translate(310,90) rotate(28) translate(-50,-20)">
    <path d="M50 220 L28 220 L39 290 Z" fill="#ffae3d"/>
    <path d="M46 220 L32 220 L39 265 Z" fill="#ffd23f"/>
    <path d="M18 170 L-12 240 L36 210 Z" fill="#ff5a4d"/>
    <path d="M60 170 L90 240 L42 210 Z" fill="#ff5a4d"/>
    <rect x="20" y="60" width="38" height="165" rx="19" fill="#eef1f6"/>
    <path d="M39 8 C58 32 60 48 60 62 L18 62 C18 48 20 32 39 8 Z" fill="#ff5a4d"/>
    <circle cx="39" cy="118" r="14" fill="#f5f7fb"/>
    <circle cx="39" cy="118" r="10" fill="#3dd4ff"/>
  </g>
  <circle cx="280" cy="72" r="8" fill="#3dd4ff"/>
  <circle cx="300" cy="104" r="5" fill="#3dd4ff" opacity="0.75"/>
</svg>