<svg class="mark" viewBox="0 0 96 96" role="img" aria-label="Money Move$">
  <rect x="6" y="56" width="14" height="28" rx="5" fill="#37e6a4"/>
  <rect x="24" y="42" width="14" height="42" rx="5" fill="#5ef0bf"/>
  <rect x="42" y="26" width="14" height="58" rx="5" fill="#c6ff3d"/>
  <g transform="translate(58,16) rotate(28) translate(-14,-8) scale(0.95)">
    <path d="M14 52 L8 52 L11 68 Z" fill="#ffae3d"/>
    <path d="M13 52 L9 52 L11 62 Z" fill="#ffd23f"/>
    <path d="M4 40 L-4 56 L10 48 Z" fill="#ff5a4d"/>
    <path d="M18 40 L26 56 L12 48 Z" fill="#ff5a4d"/>
    <rect x="5" y="14" width="12" height="38" rx="6" fill="#eef1f6"/>
    <path d="M11 2 C16 8 17 12 17 16 L5 16 C5 12 6 8 11 2 Z" fill="#ff5a4d"/>
    <circle cx="11" cy="28" r="4" fill="#3dd4ff"/>
  </g>
  <circle cx="52" cy="12" r="2.2" fill="#3dd4ff"/>
  <circle cx="58" cy="20" r="1.5" fill="#3dd4ff" opacity="0.7"/>
</svg>